<svg width="6.998734" height="14.001221" viewBox="0 0 6.99873 14.0012" fill="none" xmlns="http://www.w3.org/2000/svg" xmlns:xlink="http://www.w3.org/1999/xlink">
	<desc>
			Created with Pixso.
	</desc>
	<defs/>
	<path id="Vector" d="M5.83749 14.0012C5.6881 14.0017 5.54048 13.9688 5.4055 13.9048C5.27052 13.8408 5.15161 13.7473 5.0575 13.6313L0.227493 7.63135C0.0804138 7.45239 0 7.22778 0 6.99634C0 6.76465 0.0804138 6.54028 0.227493 6.36133L5.22749 0.361328C5.39723 0.156982 5.64114 0.0285645 5.90556 0.00415039C6.16998 -0.0202637 6.43327 0.0615234 6.63748 0.231201C6.84171 0.400879 6.97012 0.64502 6.99451 0.909424C7.01889 1.17383 6.93723 1.43701 6.76749 1.64136L2.29749 7.00122L6.61749 12.3613C6.73978 12.5081 6.81744 12.6868 6.84132 12.8762C6.8652 13.0659 6.83429 13.2583 6.75223 13.4309C6.67018 13.6033 6.54042 13.7488 6.37831 13.8499C6.2162 13.9509 6.02852 14.0034 5.83749 14.0012Z" fill="#F8F8F8" fill-opacity="1.000000" fill-rule="nonzero"/>
</svg>
