<svg width="21.000000" height="15.000000" viewBox="0 0 21 15" fill="none" xmlns="http://www.w3.org/2000/svg" xmlns:xlink="http://www.w3.org/1999/xlink">
	<desc>
			Created with Pixso.
	</desc>
	<defs/>
	<path id="Vector" d="M19.5 0L1.5 0C1.10217 0 0.720642 0.158203 0.439331 0.439453C0.15802 0.720703 0 1.10205 0 1.5L0 13.5C0 13.8979 0.15802 14.2793 0.439331 14.5605C0.720642 14.8418 1.10217 15 1.5 15L19.5 15C19.8978 15 20.2794 14.8418 20.5607 14.5605C20.842 14.2793 21 13.8979 21 13.5L21 1.5C21 1.10205 20.842 0.720703 20.5607 0.439453C20.2794 0.158203 19.8978 0 19.5 0ZM17.85 1.5L10.5 6.58496L3.15002 1.5L17.85 1.5ZM1.5 13.5L1.5 2.18262L10.0725 8.11523C10.1981 8.20215 10.3472 8.24854 10.5 8.24854C10.6528 8.24854 10.8019 8.20215 10.9275 8.11523L19.5 2.18262L19.5 13.5L1.5 13.5Z" fill="#512689" fill-opacity="1.000000" fill-rule="nonzero"/>
</svg>
