<svg width="21.500000" height="15.500000" viewBox="0 0 21.5 15.5" fill="none" xmlns="http://www.w3.org/2000/svg" xmlns:xlink="http://www.w3.org/1999/xlink">
	<desc>
			Created with Pixso.
	</desc>
	<defs/>
	<path id="Vector" d="M12.8714 9.87122C12.3285 10.4142 11.5785 10.75 10.75 10.75C9.09314 10.75 7.75 9.40686 7.75 7.75C7.75 6.92151 8.08582 6.17151 8.62878 5.62854M9.48022 0.823242C9.8949 0.774902 10.3185 0.75 10.75 0.75C15.4139 0.75 19.1498 3.65259 20.75 7.75C20.3554 8.76038 19.8309 9.69812 19.1947 10.5376M16.2306 13.2305C14.648 14.196 12.7875 14.75 10.75 14.75C6.08603 14.75 2.35013 11.8474 0.75 7.75C1.65112 5.44263 3.22955 3.51404 5.26962 2.26941" stroke="#808185" stroke-opacity="1.000000" stroke-width="1.500000" stroke-linejoin="round"/>
</svg>
