<svg width="18.000000" height="18.000000" viewBox="0 0 18 18" fill="none" xmlns="http://www.w3.org/2000/svg" xmlns:xlink="http://www.w3.org/1999/xlink">
	<desc>
			Created with Pixso.
	</desc>
	<defs/>
	<path id="Vector" d="M7.79001 13.29C8.17999 13.6799 8.81 13.6799 9.20001 13.29L12.79 9.69995C12.8827 9.60742 12.9562 9.49756 13.0064 9.37671C13.0566 9.25562 13.0825 9.12598 13.0825 8.99512C13.0825 8.86401 13.0566 8.73438 13.0064 8.61328C12.9562 8.49243 12.8827 8.38257 12.79 8.29004L9.20001 4.69995C9.01303 4.51294 8.75943 4.40796 8.495 4.40796C8.23056 4.40796 7.97699 4.51294 7.79001 4.69995C7.60303 4.88696 7.49799 5.14062 7.49799 5.40503C7.49799 5.66943 7.60303 5.9231 7.79001 6.11011L9.67001 8L1 8C0.450012 8 0 8.44995 0 9C0 9.55005 0.450012 10 1 10L9.67001 10L7.79001 11.8799C7.39999 12.27 7.41 12.9099 7.79001 13.29ZM16 0L2 0C1.46957 0 0.960846 0.210693 0.585785 0.585693C0.210724 0.960938 0 1.46948 0 2L0 5C0 5.55005 0.450012 6 1 6C1.54999 6 2 5.55005 2 5L2 3C2 2.44995 2.45001 2 3 2L15 2C15.55 2 16 2.44995 16 3L16 15C16 15.55 15.55 16 15 16L3 16C2.45001 16 2 15.55 2 15L2 13C2 12.45 1.54999 12 1 12C0.450012 12 0 12.45 0 13L0 16C0 17.1001 0.899994 18 2 18L16 18C17.1 18 18 17.1001 18 16L18 2C18 0.899902 17.1 0 16 0Z" fill="#F8F8F8" fill-opacity="1.000000" fill-rule="nonzero"/>
</svg>
