<svg width="22.067444" height="22.068848" viewBox="0 0 22.0674 22.0688" fill="none" xmlns="http://www.w3.org/2000/svg" xmlns:xlink="http://www.w3.org/1999/xlink">
	<desc>
			Created with Pixso.
	</desc>
	<defs/>
	<path id="Vector" d="M6.23853 1.33594C5.84857 0.88623 5.13354 0.888184 4.68054 1.3418L1.89856 4.12891C1.07056 4.95801 0.833557 6.18896 1.31256 7.17578C4.17419 13.1011 8.95258 17.8862 14.8735 20.7559C15.8596 21.2349 17.0895 20.998 17.9175 20.1689L20.7255 17.356C21.1805 16.9009 21.1816 16.1821 20.7275 15.792L16.8076 12.4272C16.3976 12.0752 15.7606 12.1211 15.3495 12.5332L13.9855 13.8989C13.9157 13.9722 13.8238 14.0205 13.7239 14.0361C13.624 14.0522 13.5217 14.0347 13.4326 13.9868C11.203 12.7031 9.35358 10.8511 8.07257 8.62012C8.0246 8.53076 8.0072 8.42822 8.02313 8.32812C8.039 8.22803 8.08728 8.13623 8.16058 8.06592L9.52057 6.70508C9.93256 6.29102 9.97754 5.65088 9.62158 5.24023L9.62158 5.24121L6.23853 1.33594Z" stroke="#512689" stroke-opacity="1.000000" stroke-width="2.000000" stroke-linejoin="round"/>
</svg>
