<svg width="14.000000" height="12.000000" viewBox="0 0 14 12" fill="none" xmlns="http://www.w3.org/2000/svg" xmlns:xlink="http://www.w3.org/1999/xlink">
	<desc>
			Created with Pixso.
	</desc>
	<defs/>
	<path id="Vector" d="M3.84998 0C1.72375 0 0 1.72168 0 3.84546C0 7.69092 4.54999 11.1868 7 12C9.45001 11.1868 14 7.69092 14 3.84546C14 1.72168 12.2762 0 10.15 0C8.84802 0 7.69647 0.645752 7 1.63403C6.64496 1.12891 6.17334 0.716797 5.62506 0.432373C5.07672 0.147949 4.46783 -0.000488281 3.84998 0Z" fill="#512689" fill-opacity="0" fill-rule="nonzero"/>
	<path id="Vector" d="M6.30933 0.885986C6.09882 0.711426 5.86957 0.559082 5.62506 0.432373C5.07672 0.147949 4.46783 -0.000488281 3.84998 0C1.72375 0 0 1.72168 0 3.84546C0 7.69092 4.54999 11.1868 7 12C9.45001 11.1868 14 7.69092 14 3.84546C14 1.72168 12.2762 0 10.15 0C9.21527 0 8.35809 0.332764 7.69122 0.88623C7.42914 1.10376 7.19647 1.35522 7 1.63403C6.80328 1.35425 6.5708 1.10278 6.30933 0.885986ZM7 10.9353Q7.7218 10.6455 8.5816 10.0857Q9.50726 9.48291 10.3069 8.74365Q10.5119 8.5542 10.7086 8.35571Q11.777 7.27808 12.3663 6.16113Q13 4.95972 13 3.84546Q13 3.51489 12.9272 3.20117Q12.8725 2.96509 12.7766 2.73853Q12.6783 2.50659 12.5432 2.29858Q12.381 2.04907 12.1656 1.83374Q11.9532 1.62158 11.707 1.46094Q11.4956 1.32324 11.2594 1.22339Q11.0341 1.12817 10.7994 1.07349Q10.4833 1 10.15 1Q9.76624 1 9.4082 1.09619Q9.10284 1.17798 8.81622 1.33008Q8.51831 1.48779 8.27136 1.7041Q8.01746 1.92627 7.81738 2.20996L6.9989 3.37134L6.18188 2.20898Q5.98328 1.92651 5.73096 1.70532Q5.47534 1.4812 5.16455 1.31982Q4.85663 1.16016 4.52917 1.08032Q4.19983 0.999756 3.85071 1Q3.51257 1 3.19226 1.07544Q2.96179 1.12988 2.7406 1.22339Q2.50439 1.32324 2.29303 1.46094Q2.04681 1.62158 1.83435 1.83374Q1.61896 2.04907 1.45679 2.29858Q1.32166 2.50659 1.22339 2.73853Q1.1275 2.96509 1.07275 3.20117Q1 3.51489 1 3.84546Q1 4.95972 1.63373 6.16113Q2.22296 7.27808 3.29138 8.35571Q3.4881 8.5542 3.69305 8.74365Q4.49274 9.48267 5.4184 10.0857Q6.2782 10.6455 7 10.9353Z" fill="#151317" fill-opacity="1.000000" fill-rule="evenodd"/>
</svg>
